<svg class="svg-icon" style="vertical-align: middle;fill: currentColor;overflow: hidden;"
	viewBox="0 0 1099 1024" version="1.1" xmlns="http://www.w3.org/2000/svg">
	<path
		d="M549.925926 0C267.614815 0 37.925926 229.688889 37.925926 512s229.688889 512 512 512 512-229.688889 512-512S832.237037 0 549.925926 0z m169.993481 69.56563c-50.232889 13.700741-108.847407 21.072593-169.846518 21.072592-61.018074 0-119.694222-7.414519-169.960296-21.138963A471.537778 471.537778 0 0 1 549.925926 37.925926a471.438222 471.438222 0 0 1 169.993481 31.639704zM549.925926 986.074074c-261.404444 0-474.074074-212.66963-474.074074-474.074074 0-181.646222 102.741333-339.674074 253.127111-419.252148 61.568 23.049481 139.557926 35.816296 221.093926 35.816296 81.526519 0 159.350519-12.73837 220.909037-35.768889C921.306074 172.392296 1024 330.391704 1024 512c0 261.404444-212.66963 474.074074-474.074074 474.074074z"
		fill="#DBEEF7" />
	<path
		d="M550.072889 90.642963c60.999111 0 119.608889-7.376593 169.846518-21.077333A471.438222 471.438222 0 0 0 549.925926 37.925926a471.537778 471.537778 0 0 0-169.813333 31.573333c50.266074 13.724444 108.942222 21.143704 169.960296 21.143704zM770.981926 92.8c-61.558519 23.025778-139.377778 35.764148-220.909037 35.764148-81.536 0-159.525926-12.766815-221.093926-35.811555C178.593185 172.325926 75.851852 330.353778 75.851852 512c0 261.404444 212.66963 474.074074 474.074074 474.074074s474.074074-212.66963 474.074074-474.074074c0-181.608296-102.693926-339.612444-253.018074-419.2zM682.666667 910.222222H398.222222a18.962963 18.962963 0 1 1 0-37.925926h284.444445a18.962963 18.962963 0 1 1 0 37.925926z m56.888889-56.888889H341.333333a18.962963 18.962963 0 1 1 0-37.925926h398.222223a18.962963 18.962963 0 1 1 0 37.925926z m90.334814-100.977777l-5.641481 6.162963H275.602963l-5.641482-6.162963c-65.526519-71.575704-101.617778-164.242963-101.617777-260.911408C168.343704 291.408593 325.262222 151.703704 549.925926 151.703704s381.582222 139.704889 381.582222 339.740444c0 96.663704-36.091259 189.335704-101.617778 260.906667z"
		fill="#A9C7D8" />
	<path
		d="M549.925926 151.703704c-224.663704 0-381.582222 139.704889-381.582222 339.740444 0 96.663704 36.091259 189.335704 101.617777 260.906667l5.641482 6.167704h548.645926l5.641481-6.162963c65.526519-71.575704 101.617778-164.242963 101.617778-260.911408C931.508148 291.408593 774.58963 151.703704 549.925926 151.703704z m-237.046519 369.777777a18.962963 18.962963 0 0 1-11.998814-4.276148 18.981926 18.981926 0 0 1-2.669037-26.695111l170.666666-208.592592a18.967704 18.967704 0 0 1 29.349926 24.016592l-170.666667 208.583111A18.896593 18.896593 0 0 1 312.884148 521.481481z m232.760889-168.139851l-85.333333 104.296296A18.915556 18.915556 0 0 1 445.620148 464.592593a18.967704 18.967704 0 0 1-14.667852-30.97126l85.333334-104.296296a18.967704 18.967704 0 0 1 29.354666 24.016593zM739.555556 815.407407H341.333333a18.962963 18.962963 0 1 0 0 37.925926h398.222223a18.962963 18.962963 0 1 0 0-37.925926zM682.666667 872.296296H398.222222a18.962963 18.962963 0 1 0 0 37.925926h284.444445a18.962963 18.962963 0 1 0 0-37.925926z"
		fill="#456782" />
	<path
		d="M948.148148 872.296296v37.925926c62.738963 0 113.777778 51.038815 113.777778 113.777778h37.925926c0-83.64563-68.058074-151.703704-151.703704-151.703704zM0 1024h37.925926c0-62.738963 51.038815-113.777778 113.777778-113.777778v-37.925926c-83.64563 0-151.703704 68.058074-151.703704 151.703704z"
		fill="#A9C7D8" />
	<path
		d="M495.563852 279.248593a18.977185 18.977185 0 0 0-26.68563 2.669037l-170.666666 208.592592a18.981926 18.981926 0 0 0 2.669037 26.690371 18.962963 18.962963 0 0 0 26.685629-2.68326l170.666667-208.583111a18.967704 18.967704 0 0 0-2.669037-26.685629zM516.28563 329.325037l-85.333334 104.296296a18.967704 18.967704 0 0 0 29.354667 24.016593l85.333333-104.296296a18.967704 18.967704 0 0 0-29.354666-24.016593z"
		fill="#4A8F9E" />
</svg>