<svg class="svg-icon" style="vertical-align: middle;fill: currentColor;overflow: hidden;"
	viewBox="0 0 1024 1024" version="1.1" xmlns="http://www.w3.org/2000/svg">
	<path
		d="M466.285714 475.428571c-35.286857 0-64 28.713143-64 64s28.713143 64 64 64 64-28.713143 64-64-28.713143-64-64-64z"
		fill="#FFDC82" />
	<path
		d="M797.257143 796.571429l-128.836572-117.211429C685.074286 651.798857 694.857143 619.629714 694.857143 585.142857c0-94.660571-72.292571-172.722286-164.571429-181.929143V254.546286c-5.988571 0.854857-12.064 1.453714-18.285714 1.453714s-12.297143-0.594286-18.285714-1.453714v148.667428C401.435429 412.420571 329.142857 490.482286 329.142857 585.142857c0 34.482286 9.769143 66.642286 26.422857 94.198857l-127.753143 118.061715a128.978286 128.978286 0 0 1 24.580572 27.081142l125.243428-115.744C411.072 745.069714 458.848 768 512 768s100.928-22.930286 134.372571-59.259429l126.034286 114.669715a129.28 129.28 0 0 1 24.850286-26.838857zM466.285714 603.428571c-35.286857 0-64-28.713143-64-64s28.713143-64 64-64 64 28.713143 64 64-28.713143 64-64 64z"
		fill="#746DE0" />
	<path
		d="M877.714286 768c-30.464 0-58.445714 10.742857-80.457143 28.571429a129.28 129.28 0 0 0-24.845714 26.838857A127.2 127.2 0 0 0 749.714286 896c0 70.582857 57.417143 128 128 128s128-57.417143 128-128-57.417143-128-128-128z m0 91.428571c-20.169143 0-36.571429 16.402286-36.571429 36.571429a18.285714 18.285714 0 0 1-36.571428 0c0-40.329143 32.813714-73.142857 73.142857-73.142857a18.285714 18.285714 0 0 1 0 36.571428z"
		fill="#A8A9BA" />
	<path
		d="M877.714286 822.857143c-40.329143 0-73.142857 32.813714-73.142857 73.142857a18.285714 18.285714 0 0 0 36.571428 0c0-20.169143 16.402286-36.571429 36.571429-36.571429a18.285714 18.285714 0 0 0 0-36.571428z"
		fill="#618287" />
	<path
		d="M227.812571 797.403429A127.437714 127.437714 0 0 0 146.285714 768c-70.582857 0-128 57.417143-128 128s57.417143 128 128 128 128-57.417143 128-128c0-26.468571-8.082286-51.090286-21.897143-71.515429a128.978286 128.978286 0 0 0-24.576-27.081142zM146.285714 859.428571c-20.169143 0-36.571429 16.402286-36.571428 36.571429a18.285714 18.285714 0 0 1-36.571429 0c0-40.329143 32.813714-73.142857 73.142857-73.142857a18.285714 18.285714 0 0 1 0 36.571428z"
		fill="#A8A9BA" />
	<path
		d="M146.285714 822.857143c-40.329143 0-73.142857 32.813714-73.142857 73.142857a18.285714 18.285714 0 0 0 36.571429 0c0-20.169143 16.402286-36.571429 36.571428-36.571429a18.285714 18.285714 0 0 0 0-36.571428z"
		fill="#618287" />
	<path
		d="M530.285714 254.546286C592.214857 245.622857 640 192.356571 640 128c0-70.582857-57.417143-128-128-128S384 57.417143 384 128c0 64.356571 47.785143 117.622857 109.714286 126.546286 5.988571 0.854857 12.064 1.453714 18.285714 1.453714s12.297143-0.594286 18.285714-1.453714zM475.428571 128a18.285714 18.285714 0 0 1-36.571428 0c0-40.329143 32.813714-73.142857 73.142857-73.142857a18.285714 18.285714 0 0 1 0 36.571428c-20.169143 0-36.571429 16.402286-36.571429 36.571429z"
		fill="#A8A9BA" />
	<path
		d="M530.285714 73.142857a18.285714 18.285714 0 0 0-18.285714-18.285714c-40.329143 0-73.142857 32.813714-73.142857 73.142857a18.285714 18.285714 0 0 0 36.571428 0c0-20.169143 16.402286-36.571429 36.571429-36.571429a18.285714 18.285714 0 0 0 18.285714-18.285714z"
		fill="#618287" />
</svg>